<svg xmlns="http://www.w3.org/2000/svg" xmlns:xlink="http://www.w3.org/1999/xlink" viewBox="0 0 1004.61 305.55"><defs><style>.cls-1{font-size:282px;font-family:Bauhaus93, "Bauhaus 93";letter-spacing:0em;}.cls-2{fill:url(#radial-gradient);}</style><radialGradient id="radial-gradient" cx="491.26" cy="141.07" r="349.16" gradientUnits="userSpaceOnUse"><stop offset="0" stop-color="#3898a1"/><stop offset="0.37" stop-color="#38a4a1"/><stop offset="0.84" stop-color="#3898a1"/></radialGradient></defs><g id="Layer_2" data-name="Layer 2"><g id="Layer_1-2" data-name="Layer 1"><text class="cls-1" transform="translate(0 235.05)">CATENA</text><path class="cls-2" d="M146,143.2l58.52,1.52q-5.79,45.43-31.47,70.22t-67,24.79q-42,0-70.3-28.16T7.44,141.69q0-42,28.84-70.64T107.4,42.41q41.58,0,69.4,28.09,19.27,19.41,27.26,54.11l-59.89,4q-10-30.84-38.14-30.85-17.91,0-29.54,12.4T64.85,141.69q0,18.45,11.43,30.5t28.92,12.05q17.76,0,28.3-10.61T146,143.2Z"/><path class="cls-2" d="M298.51,140.72v49.57H282.4v44.76H226.5V115.53q0-34.71,18.93-53.91t53.22-19.21q33,0,48.88,17.42t15.83,53.77V235.05h-55.9V117.32q0-11-2.62-15.29t-9.36-4.27q-13.08,0-13.08,19.56v23.4Z"/><path class="cls-2" d="M478.46,101.07v134h-55.9v-134H379.74v-54H521.15v54Z"/><path class="cls-2" d="M641.48,120.21v41.86H605q-7.43,0-10.53,2.2t-3.1,7.44c0,3.94,1.06,6.54,3.17,7.78s6.42,1.85,12.94,1.85h37.59v53.71H601.14q-31,0-47.37-14.81t-16.38-42.75V103.82q0-27,15.49-41.86t43.58-14.87h48.6v54H609.4q-14.46,0-14.46,9.36,0,5.5,3.44,7.64t12.26,2.14Z"/><path class="cls-2" d="M672.73,235.05v-122q0-32.08,19.21-51.36t51.15-19.28q31.8,0,48.68,18.73T808.63,115V235.05h-55.9V115q0-17.22-12.26-17.22-11.84,0-11.84,17.22V235.05Z"/><path class="cls-2" d="M910.24,140.72v49.57H894.13v44.76H838.22V115.53q0-34.71,18.94-53.91t53.22-19.21q33,0,48.88,17.42t15.83,53.77V235.05h-55.9V117.32q0-11-2.62-15.29t-9.36-4.27q-13.08,0-13.08,19.56v23.4Z"/></g></g></svg>